HIERARCHY
ROOT root     
{
	OFFSET 0.0000 0.0000 0.0000
	CHANNELS 6 Xposition Yposition Zposition Zrotation Yrotation Xrotation
	JOINT pelvis   
	{
		OFFSET 0.0000 0.0000 0.0000
		CHANNELS 3 Zrotation Yrotation Xrotation
		JOINT thorax   
		{
			OFFSET 0.0000 23.0750 -5.0000
			CHANNELS 3 Zrotation Yrotation Xrotation
			JOINT rclavicle
			{
				OFFSET 0.0000 28.0009 0.0000
				CHANNELS 3 Zrotation Yrotation Xrotation
				JOINT rhumerus 
				{
					OFFSET -18.5725 5.5939 0.0000
					CHANNELS 3 Zrotation Yrotation Xrotation
					JOINT rradius  
					{
						OFFSET -24.8459 0.0000 0.0000
						CHANNELS 3 Zrotation Yrotation Xrotation
						JOINT rhand    
						{
							OFFSET -24.5477 0.0000 0.0000
							CHANNELS 3 Zrotation Yrotation Xrotation
							End Site
							{
								OFFSET -8.1826 0.0000 0.0000
							}
						}
					}
				}
			}
			JOINT lclavicle
			{
				OFFSET 0.0000 28.0009 0.0000
				CHANNELS 3 Zrotation Yrotation Xrotation
				JOINT lhumerus 
				{
					OFFSET 18.5725 5.5939 0.0000
					CHANNELS 3 Zrotation Yrotation Xrotation
					JOINT lradius  
					{
						OFFSET 24.8459 0.0000 0.0000
						CHANNELS 3 Zrotation Yrotation Xrotation
						JOINT lhand    
						{
							OFFSET 24.5477 0.0000 0.0000
							CHANNELS 3 Zrotation Yrotation Xrotation
							End Site
							{
								OFFSET 8.1826 0.0000 0.0000
							}
						}
					}
				}
			}
			JOINT head     
			{
				OFFSET 0.0000 35.2030 0.0000
				CHANNELS 3 Zrotation Yrotation Xrotation
				End Site
				{
					OFFSET 0.0000 11.7343 0.0000
				}
			}
		}
		JOINT rfemur   
		{
			OFFSET -8.2817 0.0000 0.0000
			CHANNELS 3 Zrotation Yrotation Xrotation
			JOINT rtibia   
			{
				OFFSET 0.0000 -43.3627 0.0000
				CHANNELS 3 Zrotation Yrotation Xrotation
				JOINT rfoot    
				{
					OFFSET 0.0000 -38.2947 0.0000
					CHANNELS 3 Zrotation Yrotation Xrotation
					JOINT rtoes    
					{
						OFFSET 0.0000 0.0000 16.6054
						CHANNELS 3 Zrotation Yrotation Xrotation
						End Site
						{
							OFFSET 0.0000 0.0000 5.5351
						}
					}
				}
			}
		}
		JOINT lfemur   
		{
			OFFSET 8.2817 0.0000 0.0000
			CHANNELS 3 Zrotation Yrotation Xrotation
			JOINT ltibia   
			{
				OFFSET 0.0000 -43.3627 0.0000
				CHANNELS 3 Zrotation Yrotation Xrotation
				JOINT lfoot    
				{
					OFFSET 0.0000 -38.2947 0.0000
					CHANNELS 3 Zrotation Yrotation Xrotation
					JOINT ltoes    
					{
						OFFSET 0.0000 0.0000 16.6054
						CHANNELS 3 Zrotation Yrotation Xrotation
						End Site
						{
							OFFSET 0.0000 0.0000 5.5351
						}
					}
				}
			}
		}
	}
}
MOTION
Frames: 10
Frame Time: .0333333
154.37 79.396 16.948 -160.085 -81.376 -167.947 0 -0 0 -7.90282 10.9585 16.8326 14.9951 -8.097 1.95294e-05 61.1958 -7.26359 19.223 -180 69.5992 -180 -4.66614 8.38949 -0.342402 -17.0275 25.7927 -0.000131228 -54.5714 31.7094 11.9987 -180 -74.5283 180 -0.814403 1.7135 -0.0122001 2.52295 -4.00339 -19.6437 -3.81279 -1.64729 -26.3135 -0 -0 61.1916 -3.41695e-06 4.84567 8.77324 0.740795 -2.2696e-06 -71.48 -9.16644 9.69771 -67.9638 -0 -0 45.7702 1.36253e-05 11.5878 -2.34191 -0.480101 4.01288e-07 -23.1875 
153.33 78.771 16.998 -159.945 -81.131 -168.243 0 -0 0 -8.16378 10.8307 17.2615 15.4356 -7.70818 -1.98178e-05 61.8836 -7.50889 18.7456 -180 70.0286 -180 -4.39231 8.5058 -0.3268 -17.9515 25.3306 8.21997e-05 -54.6227 30.4217 11.4173 180 -74.4354 180 -0.236702 1.99526 -0.00410013 2.50791 -3.6822 -20.4668 -4.16829 -1.6373 -27.1895 -0 -0 64.0707 -5.93047e-08 4.40262 7.65705 0.587705 2.08098e-07 -70.8031 -9.40499 10.091 -68.6786 -0 -0 48.7091 1.31259e-07 11.6171 -3.76932 -0.7743 7.56923e-06 -21.1946 
152.28 78.142 17.048 -160.03 -80.8971 -168.382 0 -0 0 -8.43087 10.692 17.7745 15.9013 -7.29798 4.21545e-05 62.5852 -7.76316 18.1972 -180 70.5931 -180 -4.20164 8.61391 -0.316603 -18.9194 24.7291 -0.000255665 -54.5564 28.9945 10.881 180 -74.3778 180 0.394495 2.34092 0.0080999 2.49231 -3.36684 -21.2243 -4.55824 -1.62921 -28.0491 -0 -0 66.8951 1.41291e-06 4.05281 6.63002 0.468699 -3.96945e-06 -70.1688 -9.66968 10.4846 -69.2654 -0 -0 51.5558 -1.73163e-05 11.7054 -5.35517 -1.10771 6.98745e-06 -19.6187 
151.23 77.52 17.101 -160.369 -80.6817 -168.327 0 -0 0 -8.71246 10.5353 18.3564 16.3804 -6.88423 3.25427e-05 63.2956 -8.01533 17.6143 -180 71.3323 -180 -4.13394 8.70516 -0.314802 -19.8817 24.0037 4.79019e-05 -54.3913 27.4053 10.4112 180 -74.407 180 1.0715 2.75516 0.0258004 2.48561 -3.06148 -21.8845 -4.98549 -1.62862 -28.8911 -0 -0 69.64 -1.00234e-06 3.79126 5.69673 0.376893 3.30482e-07 -69.5246 -9.95422 10.8633 -69.6893 -0 -0 54.2566 6.15143e-06 11.8557 -7.06857 -1.47978 6.18794e-08 -18.5084 
150.18 76.91 17.158 -160.921 -80.4853 -168.116 0 -0 0 -9.00736 10.3491 18.9784 16.8536 -6.47807 -3.02676e-05 64.0035 -8.26675 17.0277 -180 72.2858 -180 -4.22423 8.7705 -0.324102 -20.8125 23.1619 9.31487e-05 -54.1369 25.665 10.0074 180 -74.5501 -180 1.78365 3.23645 0.0504005 2.49256 -2.76981 -22.4051 -5.44197 -1.6398 -29.724 -0 -0 72.2874 1.91357e-06 3.59889 4.8496 0.304701 -3.54489e-06 -68.8122 -10.2474 11.2134 -69.931 -0 -0 56.7733 -1.73977e-05 12.063 -8.86911 -1.88712 -9.58352e-06 -17.8671 
149.11 76.32 17.22 -161.669 -80.3158 -167.758 0 -0 0 -9.31339 10.1201 19.6164 17.3004 -6.09466 -2.13912e-05 64.6973 -8.51363 16.4704 -180 73.4878 -180 -4.5033 8.8013 -0.34669 -21.6742 22.2311 -6.16148e-05 -53.8141 23.7753 9.67522 -180 -74.8358 180 2.51941 3.78105 0.0831999 2.51986 -2.49547 -22.7554 -5.91707 -1.66909 -30.5536 -0 -0 74.8233 1.53967e-06 3.44859 4.06929 0.244999 -4.6617e-06 -67.9683 -10.5402 11.5229 -69.9853 -0 -0 59.0802 8.39701e-05 12.3145 -10.7093 -2.32309 1.21417e-05 -17.6633 
148.03 75.756 17.285 -162.551 -80.1843 -167.297 0 -0 0 -9.62324 9.83339 20.2374 17.7029 -5.74515 1.92949e-05 65.364 -8.75849 15.9697 -180 74.9536 -180 -4.99028 8.788 -0.383699 -22.4394 21.2386 -1.61496e-05 -53.4413 21.7497 9.41446 180 -75.2781 -180 3.26571 4.37953 0.124902 2.57109 -2.24165 -22.9027 -6.39523 -1.72231 -31.3936 -0 -0 77.2368 7.70472e-07 3.30897 3.33087 0.192501 1.87288e-06 -66.9451 -10.8194 11.7825 -69.854 -0 -0 61.1671 -0.000116265 12.5991 -12.5383 -2.77788 -9.74693e-06 -17.8344 
146.94 75.221 17.354 -163.534 -80.0918 -166.762 0 -0 0 -9.92954 9.47535 20.8213 18.0445 -5.44719 1.842e-05 65.99 -8.9969 15.5577 -180 76.7009 -180 -5.69116 8.72109 -0.434307 -23.0809 20.2343 1.41851e-05 -53.0442 19.5829 9.23691 180 -75.8932 -180 4.00955 5.01764 0.175701 2.64993 -2.01113 -22.8333 -6.85962 -1.80576 -32.2517 -0 -0 79.5219 -1.26243e-07 3.15064 2.60648 0.1434 6.1664e-07 -65.7152 -11.0757 11.986 -69.5487 -0 -0 63.0351 5.88082e-05 12.8976 -14.3091 -3.23927 1.91941e-06 -18.2854 
145.85 74.721 17.424 -164.535 -80.0514 -166.217 0 -0 0 -10.221 9.03281 21.3449 18.3121 -5.20674 4.10556e-07 66.5618 -9.23508 15.2482 -180 78.7139 -180 -6.58997 8.59147 -0.495598 -23.5906 19.2466 -3.23683e-05 -52.6422 17.3021 9.12859 180 -76.6667 180 4.73518 5.67686 0.234904 2.75557 -1.805 -22.5386 -7.28956 -1.92399 -33.1429 -0 -0 81.6762 -1.24788e-06 2.94929 1.87173 0.0964016 -2.60295e-07 -64.2646 -11.2978 12.1302 -69.0918 -0 -0 64.6904 4.46559e-05 13.1965 -15.9846 -3.69468 -1.17499e-05 -18.9056 
144.75 74.257 17.494 -165.504 -80.0664 -165.701 0 -0 0 -10.4847 8.49607 21.7935 18.4979 -5.02914 7.76134e-06 67.0633 -9.47792 15.0505 -180 80.9645 -180 -7.65199 8.39384 -0.562299 -23.9628 18.3041 3.1254e-05 -52.2583 14.938 9.07882 -180 -77.5744 180 5.42596 6.33572 0.300496 2.88514 -1.62357 -22.0249 -7.66639 -2.08039 -34.0784 -0 -0 83.6938 3.37337e-07 2.68984 1.1082 0.0521002 1.84034e-07 -62.6084 -11.476 12.2157 -68.5058 -0 -0 66.1516 -2.75908e-05 13.4844 -17.5371 -4.13242 2.91819e-06 -19.5732 
